Cyrano de Bergerac (1990)
 
http://www.imdb.com/title/tt0099334/

Genre: Comedy | Drama | History
Director: Jean-Paul Rappeneau
Stars: Gérard Depardieu, Anne Brochet and Vincent Perez
Language: French (original)

IMDb rating: 7.6 (10,293 votes)

Won Oscar.

Embarrassed by his large nose, a romantic poet/soldier romances his cousin by proxy.


Format                           : AVI
Duration                         : 2h 17mn (137 minutes)

Codec ID/Hint                    : XviD
Bit rate                         : 1 737 Kbps
Width                            : 720 pixels
Height                           : 432 pixels
Display aspect ratio             : 1.667
Frame rate                       : 25.000 fps
Stream size                      : 1.67 GiB (79%)

Format                           : AC-3
Bit rate mode                    : Constant
Bit rate                         : 448 Kbps
Channel(s)                       : 6 channels
Channel positions                : Front: L C R, Side: L R, LFE
Sampling rate                    : 48.0 KHz
Bit depth                        : 16 bits
Stream size                      : 441 MiB (20%)

Subtitles: English (*.srt)
 
http://www.shotpix.com/images/81645402952452765770.jpg 
http://www.shotpix.com/images/02263266290039031395.jpg 
http://www.shotpix.com/images/04400653397581696737.jpg 
http://www.shotpix.com/images/96247995636081078406.jpg 
http://www.shotpix.com/images/49124614212481730209.jpg 
http://www.shotpix.com/images/75725909434925434185.jpg 
http://www.shotpix.com/images/90065121627711911409.jpg 
http://www.shotpix.com/images/99120347228681263070.jpg 
http://www.shotpix.com/images/24523327356372996105.jpg 
http://www.shotpix.com/images/57572059129447585623.jpg 
http://www.shotpix.com/images/78080949861462287655.jpg
